<svg xmlns="http://www.w3.org/2000/svg" width="98.775" height="98.775" viewBox="0 0 98.775 98.775"><defs><style>.a{fill:#1dbfff;}</style></defs><path class="a" d="M217.3,233.1H215.36V207.936A1.936,1.936,0,0,0,213.424,206H197.936A1.936,1.936,0,0,0,196,207.936v7.744a1.936,1.936,0,0,0,1.936,1.936h1.936V233.1h-1.936A1.936,1.936,0,0,0,196,235.041v7.744a1.936,1.936,0,0,0,1.936,1.936H217.3a1.936,1.936,0,0,0,1.936-1.936v-7.744A1.936,1.936,0,0,0,217.3,233.1Zm-1.936,7.744H199.872v-3.872h1.936a1.936,1.936,0,0,0,1.936-1.936V215.68a1.936,1.936,0,0,0-1.936-1.936h-1.936v-3.872h11.616v25.168a1.936,1.936,0,0,0,1.936,1.936h1.936Z" transform="translate(-158.229 -166.349)"/><path class="a" d="M223.744,121.488A7.744,7.744,0,1,0,216,113.744,7.753,7.753,0,0,0,223.744,121.488Zm0-11.616a3.872,3.872,0,1,1-3.872,3.872A3.877,3.877,0,0,1,223.744,109.872Z" transform="translate(-174.356 -85.564)"/><path class="a" d="M49.387,0C76.006,0,98.775,22.726,98.775,49.388a52.607,52.607,0,0,1-7.01,26.118l6.911,20.731a1.929,1.929,0,0,1-2.441,2.439L75.5,91.765a52.594,52.594,0,0,1-26.117,7.01C22.762,98.775,0,76.046,0,49.388,0,22.762,22.728,0,49.387,0Zm0,94.917a48.254,48.254,0,0,0,24.84-6.9,1.928,1.928,0,0,1,1.643-.2L93.795,93.8,87.82,75.87a1.927,1.927,0,0,1,.2-1.643,48.251,48.251,0,0,0,6.9-24.84c0-24.679-20.85-45.529-45.529-45.529S3.858,24.708,3.858,49.388,24.708,94.917,49.387,94.917Z" transform="translate(0.001)"/></svg>