<svg xmlns="http://www.w3.org/2000/svg" width="98.775" height="85.615" viewBox="0 0 98.775 85.615"><defs><style>.a{fill:#1dbfff;}</style></defs><path class="a" d="M230.6,342.487h-4.865v-4.865a1.622,1.622,0,0,0-3.244,0v4.865h-4.865a1.622,1.622,0,1,0,0,3.244h4.865V350.6a1.622,1.622,0,0,0,3.244,0v-4.865H230.6a1.622,1.622,0,1,0,0-3.244Z" transform="translate(-174.721 -276.334)"/><path class="a" d="M92.781,75.473A14.814,14.814,0,1,0,70.519,60.407a14.811,14.811,0,0,0-10.263,0A14.816,14.816,0,1,0,37.994,75.473C25.345,79.413,16,92.895,16,108.877a1.646,1.646,0,0,0,.905,1.47,72.674,72.674,0,0,0,19.061,5.934,40.455,40.455,0,0,0-.212,4.12,1.646,1.646,0,0,0,.905,1.47,71.423,71.423,0,0,0,14.734,5.074,18.087,18.087,0,0,0,27.986,0,71.443,71.443,0,0,0,14.734-5.073,1.646,1.646,0,0,0,.905-1.471,40.456,40.456,0,0,0-.211-4.12,72.716,72.716,0,0,0,19.061-5.934,1.646,1.646,0,0,0,.905-1.47C114.775,92.895,105.431,79.413,92.781,75.473ZM85.143,51.258a11.524,11.524,0,1,1-4.987,21.916,14.822,14.822,0,0,0-6.509-11.161A11.537,11.537,0,0,1,85.143,51.258ZM65.388,62.782A11.524,11.524,0,1,1,53.864,74.306,11.524,11.524,0,0,1,65.388,62.782Zm-31.279,0a11.522,11.522,0,0,1,23.019-.77,14.822,14.822,0,0,0-6.509,11.162,11.527,11.527,0,0,1-16.51-10.392Zm2.328,50.239a72.487,72.487,0,0,1-17.13-5.182C19.77,91.07,31.4,77.6,45.633,77.6a22.328,22.328,0,0,1,5.486.687A14.875,14.875,0,0,0,57.749,87C47.1,90.313,38.8,100.386,36.437,113.021Zm28.951,17.258A14.816,14.816,0,1,1,80.2,115.462h0A14.833,14.833,0,0,1,65.388,130.279ZM81.9,122.9a18.109,18.109,0,1,0-33.02,0,71.477,71.477,0,0,1-9.816-3.538c.463-16.769,12.094-30.241,26.326-30.241S91.251,102.6,91.714,119.364A71.092,71.092,0,0,1,81.9,122.9Zm12.441-9.881C91.974,100.385,83.671,90.313,73.026,87a14.875,14.875,0,0,0,6.631-8.711,22.318,22.318,0,0,1,5.486-.687c14.231,0,25.863,13.471,26.326,30.24A72.491,72.491,0,0,1,94.338,113.02Z" transform="translate(-16 -47.957)"/></svg>