<svg xmlns="http://www.w3.org/2000/svg" width="124.384" height="100.731" viewBox="0 0 124.384 100.731"><defs><style>.a{fill:#1dbfff;}</style></defs><path class="a" d="M117.36,134.753a1.825,1.825,0,1,0-2.482,2.676l3.028,2.809H9.621V55.6l2.809,3.028a1.825,1.825,0,1,0,2.676-2.482L9.134,49.712a1.825,1.825,0,0,0-2.676,0L.487,56.151a1.825,1.825,0,1,0,2.676,2.482L5.972,55.6v86.458A1.825,1.825,0,0,0,7.8,143.888H117.908l-3.028,2.809a1.825,1.825,0,1,0,2.481,2.676L123.8,143.4a1.825,1.825,0,0,0,0-2.676Z" transform="translate(0 -49.128)"/><path class="a" d="M58.907,258.331a4.541,4.541,0,0,0,4.535,4.535H77a4.541,4.541,0,0,0,4.535-4.535V241.473a1.825,1.825,0,0,0-3.65,0v16.858a.887.887,0,0,1-.886.886H63.442a.887.887,0,0,1-.886-.886V225.467a.887.887,0,0,1,.886-.886H77a.887.887,0,0,1,.886.886v18.2a1.825,1.825,0,1,0,3.65,0v-18.2A4.541,4.541,0,0,0,77,220.932H63.442a4.541,4.541,0,0,0-4.535,4.535Z" transform="translate(-44.596 -179.195)"/><path class="a" d="M164.685,199.352h13.557a4.541,4.541,0,0,0,4.535-4.535V141.573a4.541,4.541,0,0,0-4.535-4.536H164.685a4.541,4.541,0,0,0-4.535,4.536v53.244A4.541,4.541,0,0,0,164.685,199.352Zm-.886-57.78a.887.887,0,0,1,.886-.886h13.557a.887.887,0,0,1,.886.886v53.244a.887.887,0,0,1-.886.886H164.685a.887.887,0,0,1-.886-.886Z" transform="translate(-121.244 -115.681)"/><path class="a" d="M265.851,198.772h12.921a1.825,1.825,0,1,0,0-3.65H265.851a.887.887,0,0,1-.886-.886V138.095a1.825,1.825,0,0,0-3.65,0v56.141a4.541,4.541,0,0,0,4.536,4.535Z" transform="translate(-197.832 -115.1)"/><path class="a" d="M263.141,96.725a1.825,1.825,0,0,0,1.825-1.825V79.034a.887.887,0,0,1,.886-.886h13.557a.887.887,0,0,1,.886.886v68.437a.887.887,0,0,1-.886.886,1.825,1.825,0,0,0,0,3.65,4.541,4.541,0,0,0,4.535-4.535V79.034a4.541,4.541,0,0,0-4.535-4.536H265.852a4.541,4.541,0,0,0-4.536,4.536V94.9a1.824,1.824,0,0,0,1.825,1.825Z" transform="translate(-197.833 -68.335)"/><path class="a" d="M367.095,312.745h13.557a4.541,4.541,0,0,0,4.535-4.535V291.352a4.541,4.541,0,0,0-4.535-4.535H367.095a4.541,4.541,0,0,0-4.536,4.535V308.21A4.54,4.54,0,0,0,367.095,312.745Zm-.886-21.393a.887.887,0,0,1,.886-.886h13.557a.887.887,0,0,1,.886.886V308.21a.887.887,0,0,1-.886.886H367.094a.887.887,0,0,1-.886-.886Z" transform="translate(-274.48 -229.074)"/></svg>