<svg xmlns="http://www.w3.org/2000/svg" width="79.444" height="106.275" viewBox="0 0 79.444 106.275"><defs><style>.a{fill:#1dbfff;}</style></defs><g transform="translate(-66.5 -2.5)"><path class="a" d="M189.319,87.833h-31.3a6.184,6.184,0,0,0,0,12.367h31.3a6.184,6.184,0,0,0,0-12.367Zm0,8.944h-31.3a2.76,2.76,0,0,1,0-5.52h31.3a2.76,2.76,0,0,1,0,5.52Z" transform="translate(-67.446 -67.446)"/><path class="a" d="M165.425,23.811a1.73,1.73,0,0,0,1.076-.376l12.4-9.92a6.118,6.118,0,0,0,1.975-6.881A6.117,6.117,0,0,0,175.039,2.5H133.456a6.117,6.117,0,0,0-5.838,4.135,6.118,6.118,0,0,0,1.975,6.88L142,23.438a1.713,1.713,0,1,0,2.139-2.675l-12.4-9.922a2.691,2.691,0,0,1-.882-3.075,2.69,2.69,0,0,1,2.6-1.843h41.579a2.757,2.757,0,0,1,1.722,4.914l-12.4,9.923a1.714,1.714,0,0,0,1.072,3.051Z" transform="translate(-48.023)"/><path class="a" d="M206.879,278.088h11.18a8.42,8.42,0,0,0,0-16.839h-4.472a5,5,0,0,1,0-9.992h11.18a1.712,1.712,0,0,0,0-3.424h-11.18a8.42,8.42,0,0,0,0,16.839h4.472a5,5,0,1,1,0,9.992h-11.18a1.712,1.712,0,0,0,0,3.424Z" transform="translate(-109.6 -193.907)"/><path class="a" d="M251.257,377.545a1.712,1.712,0,1,0-3.424,0v6.708a1.712,1.712,0,0,0,3.424,0Z" transform="translate(-143.323 -295.077)"/><path class="a" d="M251.257,217.545a1.712,1.712,0,1,0-3.424,0v6.708a1.712,1.712,0,1,0,3.424,0Z" transform="translate(-143.323 -168.615)"/><path class="a" d="M120.146,130.732a1.719,1.719,0,0,0-.866-.232H93.165a1.718,1.718,0,0,0-.867.232C77.35,139.508,66.5,160.818,66.5,181.4c0,14.207,7.443,28.543,24.071,28.543h31.3c16.628,0,24.071-14.336,24.071-28.543C145.944,160.818,135.094,139.508,120.146,130.732Zm22.375,50.67c0,11.588-5.407,25.119-20.647,25.119h-31.3c-15.24,0-20.647-13.532-20.647-25.119a63.571,63.571,0,0,1,6.641-27.74c4.285-8.615,10.3-15.6,16.944-19.661l.126-.077H118.81l.126.077c6.641,4.064,12.658,11.046,16.944,19.661A63.571,63.571,0,0,1,142.521,181.4Z" transform="translate(0 -101.169)"/></g></svg>