<svg xmlns="http://www.w3.org/2000/svg" width="98.775" height="98.773" viewBox="0 0 98.775 98.773"><defs><style>.a{fill:#1dbfff;}</style></defs><path class="a" d="M78.2,98.784H20.578a8.24,8.24,0,0,1-8.231-8.231V53.512H4.116A4.07,4.07,0,0,1,0,49.4a4.182,4.182,0,0,1,1.218-2.935L47.947.6a2.067,2.067,0,0,1,2.885,0L65.85,15.352V6.182a2.059,2.059,0,0,1,2.058-2.058H84.37a2.059,2.059,0,0,1,2.058,2.058V35.526L97.545,46.445A4.208,4.208,0,0,1,98.775,49.4a4.07,4.07,0,0,1-4.116,4.116H86.428V90.552A8.24,8.24,0,0,1,78.2,98.784ZM49.388,4.951,4.116,49.384,14.4,49.4a2.059,2.059,0,0,1,2.058,2.058v39.1a4.123,4.123,0,0,0,4.116,4.116H78.2a4.123,4.123,0,0,0,4.116-4.116v-39.1A2.059,2.059,0,0,1,84.37,49.4H94.66a.047.047,0,0,0-.012-.025L82.93,37.86a2.059,2.059,0,0,1-.617-1.469V8.24H69.966V20.257a2.061,2.061,0,0,1-3.5,1.469Z" transform="translate(0 -0.011)"/></svg>