<svg xmlns="http://www.w3.org/2000/svg" width="117.511" height="115.101" viewBox="0 0 117.511 115.101"><defs><style>.a{fill:#1dbfff;}</style></defs><path class="a" d="M276.965,328.239h-2.7a1.721,1.721,0,1,0,0,3.443h2.7a1.721,1.721,0,0,0,0-3.443Z" transform="translate(-209.989 -254.109)"/><path class="a" d="M319.907,328.239h-2.7a1.721,1.721,0,1,0,0,3.443h2.7a1.721,1.721,0,0,0,0-3.443Z" transform="translate(-243.075 -254.109)"/><path class="a" d="M362.849,328.239h-2.7a1.721,1.721,0,1,0,0,3.443h2.7a1.721,1.721,0,1,0,0-3.443Z" transform="translate(-276.161 -254.109)"/><path class="a" d="M405.79,328.239h-2.7a1.721,1.721,0,1,0,0,3.443h2.7a1.721,1.721,0,0,0,0-3.443Z" transform="translate(-309.247 -254.109)"/><path class="a" d="M276.965,367.6h-2.7a1.721,1.721,0,1,0,0,3.443h2.7a1.721,1.721,0,1,0,0-3.443Z" transform="translate(-209.989 -284.438)"/><path class="a" d="M319.907,367.6h-2.7a1.721,1.721,0,1,0,0,3.443h2.7a1.721,1.721,0,1,0,0-3.443Z" transform="translate(-243.075 -284.438)"/><path class="a" d="M362.849,367.6h-2.7a1.721,1.721,0,1,0,0,3.443h2.7a1.721,1.721,0,1,0,0-3.443Z" transform="translate(-276.161 -284.438)"/><path class="a" d="M405.79,367.6h-2.7a1.721,1.721,0,1,0,0,3.443h2.7a1.721,1.721,0,1,0,0-3.443Z" transform="translate(-309.247 -284.438)"/><path class="a" d="M137,161.491h-8.728a1.721,1.721,0,1,0,0,3.443H137a1.721,1.721,0,1,0,0-3.443Z" transform="translate(-97.509 -125.632)"/><path class="a" d="M137,191.514h-8.728a1.721,1.721,0,0,0,0,3.443H137a1.721,1.721,0,0,0,0-3.443Z" transform="translate(-97.509 -148.764)"/><path class="a" d="M305.316,238.344v-11.35a3.56,3.56,0,0,0-3.556-3.556H270.21a3.56,3.56,0,0,0-3.556,3.556v11.35a3.56,3.56,0,0,0,3.556,3.556h31.551A3.56,3.56,0,0,0,305.316,238.344Zm-3.443,0a.113.113,0,0,1-.113.113H270.21a.113.113,0,0,1-.113-.113v-11.35a.113.113,0,0,1,.113-.113h31.551a.113.113,0,0,1,.113.113Z" transform="translate(-205.453 -173.362)"/><path class="a" d="M68.1,161.253v4.467a3.211,3.211,0,0,0,3.207,3.207H103.9a3.211,3.211,0,0,0,3.207-3.207v-4.467a3.211,3.211,0,0,0-3.207-3.207h-2.684V132.307a3.582,3.582,0,0,0-3.578-3.578H77.574A3.582,3.582,0,0,0,74,132.307v25.739H71.311A3.211,3.211,0,0,0,68.1,161.253Zm33.111.235h2.448v4h-2.448ZM77.438,132.307a.136.136,0,0,1,.135-.136H97.637a.136.136,0,0,1,.135.136v33.177H77.438Zm-5.891,29.182H74v4H71.547Z" transform="translate(-52.473 -100.389)"/><path class="a" d="M113.824,101.222h-2.448l-3.664-53.175a4.257,4.257,0,0,0-4.234-3.953H87.363V36.763H104.3a5.327,5.327,0,0,0,5.321-5.321V10.572A5.327,5.327,0,0,0,104.3,5.251H56.374a5.327,5.327,0,0,0-5.321,5.321v20.87a5.327,5.327,0,0,0,5.321,5.321H73.312v7.332H51.687a1.721,1.721,0,1,0,0,3.443h51.791a.8.8,0,0,1,.8.746l3.647,52.938H9.5l3.647-52.938a.8.8,0,0,1,.8-.746H18.1a1.721,1.721,0,0,0,0-3.443H13.944A4.257,4.257,0,0,0,9.71,48.047L6.046,101.222H3.687A3.692,3.692,0,0,0,0,104.909v11.755a3.692,3.692,0,0,0,3.687,3.687H113.824a3.692,3.692,0,0,0,3.687-3.687V104.909a3.691,3.691,0,0,0-3.687-3.687Zm-57.45-67.9A1.881,1.881,0,0,1,54.5,31.442V10.572a1.88,1.88,0,0,1,1.878-1.878H104.3a1.881,1.881,0,0,1,1.878,1.878v20.87A1.88,1.88,0,0,1,104.3,33.32ZM83.921,44.094H76.755V36.763h7.166Zm30.148,72.57a.245.245,0,0,1-.245.245H96.913v-3.72a4.243,4.243,0,0,0-4.238-4.238H86.459a1.721,1.721,0,0,0,0,3.443h6.216a.8.8,0,0,1,.8.8v3.72H24.965v-3.72a.8.8,0,0,1,.8-.8H88.409a1.721,1.721,0,0,0,0-3.443H25.76a4.243,4.243,0,0,0-4.238,4.238v3.72H3.687a.245.245,0,0,1-.245-.245V104.909a.245.245,0,0,1,.245-.245H113.824a.245.245,0,0,1,.245.245v11.755Z" transform="translate(0 -5.251)"/><path class="a" d="M294.141,35.275H255.572a3.113,3.113,0,0,0-3.109,3.109V49.9A3.113,3.113,0,0,0,255.572,53h38.568A3.113,3.113,0,0,0,297.25,49.9V38.384A3.113,3.113,0,0,0,294.141,35.275Zm-.333,14.287h-37.9V38.718h37.9Z" transform="translate(-194.519 -28.384)"/></svg>