<svg id="Capa_1" enable-background="new 0 0 512 512" height="512" viewBox="0 0 512 512" width="512" xmlns="http://www.w3.org/2000/svg"><g><g><path d="m384.399 419.277c-5.523 0-10.014-4.477-10.014-10 0-5.522 4.463-10 9.985-10h.028c5.523 0 10 4.477 10 10 .001 5.522-4.476 10-9.999 10z"/></g><g><path d="m136.158 399.277h-.028c-5.523 0-9.985 4.477-9.985 10 0 5.522 4.491 10 10.014 10s10-4.477 10-10c-.001-5.522-4.478-10-10.001-10z"/><path d="m497.516 372.906v-81.404c0-1.25-.244-2.525-.705-3.687l-47.732-120.325c-1.512-3.81-5.196-6.312-9.295-6.312h-79.427v-39.237c0-5.522-4.477-10-10-10h-103.754c-5.473-8.977-12.049-17.367-19.673-24.991-19.275-19.275-43.586-32.008-70.305-36.823-26.101-4.704-52.698-1.594-76.911 8.995-5.06 2.213-7.368 8.108-5.155 13.168 2.213 5.059 8.109 7.369 13.168 5.155 42.863-18.744 91.952-9.464 125.061 23.647 21.334 21.334 33.083 49.695 33.083 79.86 0 30.163-11.748 58.516-33.085 79.841-21.32 21.333-49.672 33.082-79.835 33.082s-58.524-11.75-79.858-33.084c-33.061-33.06-42.362-82.124-23.696-124.993 2.205-5.063-.113-10.956-5.176-13.161-5.061-2.202-10.955.113-13.16 5.177-10.544 24.215-13.627 50.796-8.917 76.87 4.634 25.652 16.582 49.067 34.588 67.944v100.278c-8.527 3.833-14.484 12.401-14.484 22.34v13.01c0 13.5 10.983 24.484 24.483 24.484h39.995c8.801 18.468 27.648 31.264 49.432 31.264 21.772 0 40.61-12.796 49.406-31.264h149.4c8.797 18.468 27.634 31.264 49.406 31.264 21.784 0 40.63-12.796 49.432-31.264h53.714c13.5 0 24.483-10.984 24.483-24.484v-13.01c.001-9.939-5.955-18.507-14.483-22.34zm-45.947-144.903 21.223 53.5h-108.552v-53.5zm-18.575-46.826 10.642 26.826h-89.395c-5.523 0-10 4.477-10 10v73.499c0 5.522 4.477 10 10 10h123.276v24.645h-13.583c-5.523 0-10 4.477-10 10s4.477 10 10 10h13.583v24.616h-54.327c-9.921-9.988-23.658-16.185-38.819-16.185-15.153 0-28.883 6.197-38.799 16.185h-33.599v-189.586zm-351.442 231.565h-34.821c-2.431 0-4.484-2.054-4.484-4.485v-13.01c0-2.432 2.054-4.485 4.484-4.485h37.934c-2.089 5.786-3.234 12.019-3.234 18.516 0 1.164.049 2.317.121 3.464zm54.606 31.264c-19.149 0-34.728-15.579-34.728-34.729 0-19.134 15.579-34.701 34.728-34.701 19.134 0 34.7 15.567 34.7 34.701 0 19.15-15.566 34.729-34.7 34.729zm38.799-73.244c-9.916-9.988-23.646-16.185-38.799-16.185-15.161 0-28.898 6.197-38.819 16.185h-40.608v-80.874c22.179 15.588 48.555 23.986 76.221 23.986 35.506 0 68.883-13.831 93.976-38.939 25.112-25.099 38.942-58.475 38.942-93.983 0-17.055-3.199-33.618-9.299-49.012h83.786v29.237h-38.385c-5.523 0-10 4.477-10 10v199.584h-117.015zm15.779 41.98c.072-1.147.121-2.3.121-3.465 0-6.497-1.144-12.73-3.232-18.516h145.279c-2.088 5.786-3.232 12.019-3.232 18.516 0 1.165.049 2.318.121 3.465zm193.635 31.264c-19.134 0-34.7-15.579-34.7-34.729 0-19.134 15.566-34.701 34.7-34.701 10.679 0 20.244 4.845 26.62 12.447.071.088.145.172.218.258 4.927 5.991 7.889 13.654 7.889 21.996.001 19.15-15.578 34.729-34.727 34.729zm107.63-35.749c0 2.432-2.054 4.485-4.484 4.485h-48.54c.072-1.147.121-2.3.121-3.465 0-6.497-1.145-12.73-3.234-18.516h51.652c2.431 0 4.484 2.054 4.484 4.485v13.011z"/><path d="m132.955 273.186c50.854 0 92.227-41.373 92.227-92.229 0-50.871-41.373-92.258-92.227-92.258-50.87 0-92.255 41.387-92.255 92.258 0 50.855 41.385 92.229 92.255 92.229zm0-164.488c39.827 0 72.228 32.415 72.228 72.259 0 39.828-32.401 72.23-72.228 72.23-39.842 0-72.256-32.402-72.256-72.23 0-39.845 32.414-72.259 72.256-72.259z"/><path d="m132.955 190.956h28.883c5.523 0 10-4.477 10-10 0-5.522-4.477-10-10-10h-18.884v-31.611c0-5.522-4.477-10-10-10s-10 4.477-10 10v41.611c.001 5.523 4.478 10 10.001 10z"/><path d="m45.994 104.049c2.559 0 5.118-.977 7.071-2.929l.028-.028c3.905-3.905 3.89-10.222-.014-14.127-3.905-3.904-10.25-3.891-14.156.014-3.905 3.905-3.905 10.237 0 14.142 1.953 1.952 4.512 2.928 7.071 2.928z"/></g></g></svg>