<svg id="line_Icons" height="512" viewBox="0 0 74 74" width="512" xmlns="http://www.w3.org/2000/svg" data-name="line Icons"><path d="m56.316 40.075h-38.5a8.935 8.935 0 0 1 -.405-17.859 8.879 8.879 0 0 1 11.512-5.187 13.9 13.9 0 0 1 11.869-6.236c7.308 0 13.3 5.271 13.727 11.9a8.786 8.786 0 1 1 1.8 17.385zm-38.435-15.87h-.069a6.934 6.934 0 0 0 0 13.869h38.5a6.786 6.786 0 1 0 -2.459-13.11 1 1 0 0 1 -1.339-1.151 2.224 2.224 0 0 0 .019-.374c0-5.871-5.271-10.647-11.75-10.647a11.8 11.8 0 0 0 -10.573 5.983 1 1 0 0 1 -1.337.421 6.978 6.978 0 0 0 -3.152-.761 6.888 6.888 0 0 0 -6.63 5.056 1 1 0 0 1 -1.158.717.408.408 0 0 0 -.052-.003z"/><path d="m61.9 55.667a1 1 0 0 1 -1-1v-7.311h-47.8v7.311a1 1 0 0 1 -2 0v-8.311a1 1 0 0 1 1-1h49.8a1 1 0 0 1 1 1v8.311a1 1 0 0 1 -1 1z"/><path d="m37 55.711a1 1 0 0 1 -1-1v-15.636a1 1 0 0 1 2 0v15.636a1 1 0 0 1 -1 1z"/><path d="m70.04 63.208h-16.289a1.962 1.962 0 0 1 -1.96-1.96v-5.577a1.962 1.962 0 0 1 1.96-1.96h16.289a1.962 1.962 0 0 1 1.96 1.96v5.577a1.962 1.962 0 0 1 -1.96 1.96zm-16.289-7.5.04 5.537 16.249-.04-.04-5.5z"/><path d="m67.477 59.459h-.277a1 1 0 0 1 0-2h.28a1 1 0 0 1 0 2z"/><path d="m63.87 59.459h-.28a1 1 0 0 1 0-2h.28a1 1 0 0 1 0 2z"/><path d="m45.145 63.208h-16.29a1.962 1.962 0 0 1 -1.96-1.96v-5.577a1.962 1.962 0 0 1 1.96-1.96h16.29a1.962 1.962 0 0 1 1.96 1.96v5.577a1.962 1.962 0 0 1 -1.96 1.96zm-16.289-7.5.04 5.537 16.249-.04-.04-5.5z"/><path d="m42.581 59.459h-.281a1 1 0 0 1 0-2h.28a1 1 0 0 1 0 2z"/><path d="m38.975 59.459h-.28a1 1 0 0 1 0-2h.28a1 1 0 0 1 0 2z"/><path d="m20.249 63.208h-16.289a1.962 1.962 0 0 1 -1.96-1.96v-5.577a1.962 1.962 0 0 1 1.96-1.96h16.289a1.962 1.962 0 0 1 1.96 1.96v5.577a1.962 1.962 0 0 1 -1.96 1.96zm-16.289-7.497.04 5.537 16.249-.04-.04-5.5z"/><path d="m17.686 59.459h-.28a1 1 0 0 1 0-2h.28a1 1 0 1 1 0 2z"/><path d="m14.079 59.459h-.279a1 1 0 0 1 0-2h.279a1 1 0 0 1 0 2z"/></svg>