<svg xmlns="http://www.w3.org/2000/svg" xmlns:xlink="http://www.w3.org/1999/xlink" width="1926" height="1294" viewBox="0 0 1926 1294"><defs><style>.a{fill:#f5f5f5;}.b{clip-path:url(#a);}.c{fill:none;stroke:#520ebc;stroke-width:3px;}</style><clipPath id="a"><rect class="a" width="1920" height="1294"/></clipPath></defs><g transform="translate(6)"><rect class="a" width="1926" height="1294" transform="translate(-6)"/><g class="b"><g transform="translate(-255.25 936.312)"><path class="c" d="M22.923,2.22,59.178,30.053A40.019,40.019,0,0,1,74.807,61.416l2.212,245.7c.088,9.988,9.613,17.292,19,14.585l231.02-66.692a38.206,38.206,0,0,1,33.818,6.573l36.262,27.833c10.023,7.695,7.35,23.57-4.55,27.008L25.68,422.32c-11.536,3.333-23.212-5.632-23.316-17.893l-3.5-390.175A14.861,14.861,0,0,1,22.923,2.22" transform="translate(361.447 565.485) rotate(-155)"/><path class="c" d="M.076,16.849,8.684,121.988c1.2,14.579,14.149,26.268,25.851,23.329l84.373-21.187c12.1-3.047,13.47-21.678,2.326-31.731L24.075,4.664C12.937-5.387-1.16,1.784.076,16.849" transform="translate(278.057 420.271) rotate(-155)"/></g><g transform="translate(1672.573 -147.617)"><path class="c" d="M30.694,3.693,63.988,29.263A36.773,36.773,0,0,1,78.343,58.071l2.068,225.664c.082,9.174,8.83,15.884,17.449,13.4l212.112-61.218a35.078,35.078,0,0,1,31.052,6.042l33.3,25.569c9.2,7.069,6.753,21.649-4.174,24.8L33.29,389.538C22.7,392.6,11.975,384.362,11.878,373.1L8.609,14.741A13.642,13.642,0,0,1,30.694,3.693" transform="translate(153.941 -3.376) rotate(25)"/><path class="c" d="M.076,16.849,8.684,121.988c1.2,14.579,14.149,26.268,25.851,23.329l84.373-21.187c12.1-3.047,13.47-21.678,2.326-31.731L24.075,4.664C12.937-5.387-1.16,1.784.076,16.849" transform="translate(235.338 129.066) rotate(25)"/></g></g></g></svg>