<svg xmlns="http://www.w3.org/2000/svg" xmlns:xlink="http://www.w3.org/1999/xlink" width="1943" height="756" viewBox="0 0 1943 756"><defs><style>.a{fill:#520ebc;}.b{clip-path:url(#a);}.c{mix-blend-mode:screen;isolation:isolate;}.d{fill:url(#b);}.e{fill:url(#c);}.f{fill:url(#d);}.g{fill:url(#e);}.h{fill:url(#f);}.i{fill:url(#g);}.j{fill:url(#h);}.k{fill:url(#i);}.l{fill:url(#j);}.m{fill:url(#k);}.n{fill:url(#l);}.o{fill:url(#m);}.p{fill:url(#n);}.q{fill:url(#o);}.r{fill:url(#p);}.s{fill:url(#q);}.t{fill:url(#r);}.u{fill:url(#s);}.v{fill:url(#t);}.w{fill:url(#u);}.x{fill:url(#v);}.y{fill:url(#w);}.z{fill:url(#x);}.aa{fill:url(#y);}.ab{fill:url(#z);}.ac{fill:url(#aa);}.ad{fill:url(#ab);}.ae{fill:url(#ac);}.af{fill:url(#ad);}.ag{fill:url(#ae);}.ah{fill:url(#af);}.ai{fill:url(#ag);}.aj{fill:url(#ah);}.ak{fill:url(#ai);}.al{fill:url(#aj);}.am{fill:url(#ak);}.an{fill:url(#al);}.ao{fill:url(#am);}.ap{fill:url(#an);}.aq{fill:url(#ao);}.ar{fill:url(#ap);}.as{fill:url(#aq);}.at{fill:url(#ar);}.au{fill:url(#as);}.av{fill:url(#at);}.aw{fill:url(#au);}.ax{fill:url(#av);}.ay{fill:url(#aw);}.az{fill:url(#ax);}.ba{fill:url(#ay);}.bb{fill:url(#az);}.bc{fill:url(#ba);}.bd{fill:url(#bb);}.be{fill:url(#bc);}.bf{fill:url(#bd);}.bg{fill:url(#be);}.bh{fill:url(#bf);}.bi{fill:url(#bg);}.bj{fill:url(#bh);}.bk{fill:url(#bi);}</style><clipPath id="a"><rect class="a" width="1943" height="756" transform="translate(-11.5 4655)"/></clipPath><radialGradient id="b" cx="0.67" cy="0.329" r="0.401" gradientTransform="translate(19.048 -1.017) rotate(180) scale(2.14 1)" gradientUnits="objectBoundingBox"><stop offset="0" stop-color="#b4299a"/><stop offset="0.244" stop-color="#7c1c6c"/><stop offset="0.493" stop-color="#4a1244"/><stop offset="0.71" stop-color="#260a27"/><stop offset="0.887" stop-color="#100515"/><stop offset="1" stop-color="#08040f"/></radialGradient><radialGradient id="c" cx="0.5" cy="0.5" r="0.432" gradientTransform="translate(12.195 -1.216) rotate(180) scale(1.427 1)" xlink:href="#b"/><radialGradient id="d" cx="0.5" cy="0.5" r="0.369" gradientTransform="translate(46.689 -1.348) rotate(180) scale(3.378 1)" xlink:href="#b"/><radialGradient id="e" cx="0.5" cy="0.5" r="0.379" gradientTransform="translate(24.175 -1.906) rotate(180) scale(2.574 1)" xlink:href="#b"/><radialGradient id="f" cx="0.5" cy="0.5" r="0.426" gradientTransform="translate(22.101 -2.107) rotate(180) scale(1.492 1)" xlink:href="#b"/><radialGradient id="g" cx="0.5" cy="0.5" r="0.492" gradientTransform="translate(7.213 -3.306) rotate(180) scale(1.034 1)" xlink:href="#b"/><radialGradient id="h" cx="0.529" cy="0.437" r="0.419" gradientTransform="translate(10.148 -1.42) rotate(180) scale(1.582 1)" xlink:href="#b"/><radialGradient id="i" cx="0.5" cy="0.5" r="0.37" gradientTransform="translate(41.124 -2.325) rotate(180) scale(3.236 1)" xlink:href="#b"/><radialGradient id="j" cx="0.5" cy="0.5" r="0.468" gradientTransform="translate(8.655 -4.57) rotate(180) scale(1.155 1)" xlink:href="#b"/><radialGradient id="k" cx="0.5" cy="0.5" r="0.382" gradientTransform="translate(27.447 -2.867) rotate(180) scale(2.45 1)" xlink:href="#b"/><radialGradient id="l" cx="0.5" cy="0.5" r="0.454" gradientTransform="translate(200.319 -139.66) rotate(180) scale(1.243 1)" xlink:href="#b"/><radialGradient id="m" cx="0.5" cy="0.5" r="0.454" gradientTransform="translate(159.721 -129.012) rotate(180) scale(1.244 1)" xlink:href="#b"/><radialGradient id="n" cx="0.5" cy="0.5" r="0.454" gradientTransform="translate(212.151 -128.715) rotate(180) scale(1.244 1)" xlink:href="#b"/><radialGradient id="o" cx="0.5" cy="0.5" r="0.454" gradientTransform="translate(223.691 -148.742) rotate(180) scale(1.243 1)" xlink:href="#b"/><radialGradient id="p" cx="0.5" cy="0.5" r="0.454" gradientTransform="translate(238.154 -137.453) rotate(180) scale(1.244 1)" xlink:href="#b"/><radialGradient id="q" cx="0.5" cy="0.5" r="0.454" gradientTransform="translate(205.83 -118.623) rotate(180) scale(1.243 1)" xlink:href="#b"/><radialGradient id="r" cx="0.5" cy="0.5" r="0.454" gradientTransform="translate(252.034 -128.603) rotate(180) scale(1.244 1)" xlink:href="#b"/><radialGradient id="s" cx="0.5" cy="0.5" r="0.454" gradientTransform="translate(268.553 -135.75) rotate(180) scale(1.243 1)" xlink:href="#b"/><radialGradient id="t" cx="0.5" cy="0.5" r="0.454" gradientTransform="translate(295.569 -106.004) rotate(180) scale(1.243 1)" xlink:href="#b"/><radialGradient id="u" cx="0.5" cy="0.5" r="0.454" gradientTransform="translate(302.393 -83.73) rotate(180) scale(1.243 1)" xlink:href="#b"/><radialGradient id="v" cx="0.5" cy="0.5" r="0.671" gradientTransform="translate(155.344 -14.598) rotate(180) scale(0.62 1)" xlink:href="#b"/><radialGradient id="w" cx="0.5" cy="0.5" r="0.671" gradientTransform="translate(131.257 -26.445) rotate(180) scale(0.62 1)" xlink:href="#b"/><radialGradient id="x" cx="0.5" cy="0.5" r="0.671" gradientTransform="translate(124.442 -49.602) rotate(180) scale(0.62 1)" xlink:href="#b"/><radialGradient id="y" cx="0.5" cy="0.5" r="0.671" gradientTransform="translate(122.694 -7.088) rotate(180) scale(0.62 1)" xlink:href="#b"/><radialGradient id="z" cx="0.5" cy="0.5" r="0.671" gradientTransform="translate(98.973 -14.053) rotate(180) scale(0.62 1)" xlink:href="#b"/><radialGradient id="aa" cx="0.5" cy="0.5" r="0.671" gradientTransform="translate(92.689 -38.806) rotate(180) scale(0.62 1)" xlink:href="#b"/><radialGradient id="ab" cx="0.5" cy="0.5" r="0.671" gradientTransform="translate(70.13 -22.813) rotate(180) scale(0.62 1)" xlink:href="#b"/><radialGradient id="ac" cx="0.5" cy="0.5" r="0.671" gradientTransform="translate(98.677 -59.298) rotate(180) scale(0.62 1)" xlink:href="#b"/><radialGradient id="ad" cx="0.5" cy="0.5" r="0.671" gradientTransform="translate(59.54 -62.614) rotate(180) scale(0.62 1)" xlink:href="#b"/><radialGradient id="ae" cx="0.5" cy="0.5" r="0.671" gradientTransform="translate(55.701 -106.213) rotate(180) scale(0.62 1)" xlink:href="#b"/><radialGradient id="af" cx="0.33" cy="0.671" r="0.401" gradientTransform="translate(-0.57) scale(2.14 1)" xlink:href="#b"/><radialGradient id="ag" cx="0.5" cy="0.5" r="0.432" gradientTransform="translate(-0.213) scale(1.427 1)" xlink:href="#b"/><radialGradient id="ah" cx="0.5" cy="0.5" r="0.369" gradientTransform="translate(-1.189) scale(3.378 1)" xlink:href="#b"/><radialGradient id="ai" cx="0.5" cy="0.5" r="0.379" gradientTransform="translate(-0.787) scale(2.574 1)" xlink:href="#b"/><radialGradient id="aj" cx="0.5" cy="0.5" r="0.426" gradientTransform="translate(-0.246) scale(1.492 1)" xlink:href="#b"/><radialGradient id="ak" cx="0.5" cy="0.5" r="0.492" gradientTransform="translate(-0.017) scale(1.034 1)" xlink:href="#b"/><radialGradient id="al" cx="0.471" cy="0.563" r="0.419" gradientTransform="translate(-0.291) scale(1.582 1)" xlink:href="#b"/><radialGradient id="am" cx="0.5" cy="0.5" r="0.37" gradientTransform="translate(-1.118) scale(3.236 1)" xlink:href="#b"/><radialGradient id="an" cx="0.5" cy="0.5" r="0.468" gradientTransform="translate(-0.077) scale(1.155 1)" xlink:href="#b"/><radialGradient id="ao" cx="0.5" cy="0.5" r="0.382" gradientTransform="translate(-0.725) scale(2.45 1)" xlink:href="#b"/><radialGradient id="ap" cx="0.5" cy="0.5" r="0.454" gradientTransform="translate(-0.122) scale(1.243 1)" xlink:href="#b"/><radialGradient id="aq" cx="0.5" cy="0.5" r="0.454" gradientTransform="translate(-0.122) scale(1.244 1)" xlink:href="#b"/><radialGradient id="ar" cx="0.5" cy="0.5" r="0.454" gradientTransform="translate(-0.122) scale(1.244 1)" xlink:href="#b"/><radialGradient id="as" cx="0.5" cy="0.5" r="0.454" gradientTransform="translate(-0.122) scale(1.243 1)" xlink:href="#b"/><radialGradient id="at" cx="0.5" cy="0.5" r="0.454" gradientTransform="translate(-0.122) scale(1.243 1)" xlink:href="#b"/><radialGradient id="au" cx="0.5" cy="0.5" r="0.454" gradientTransform="translate(-0.122) scale(1.243 1)" xlink:href="#b"/><radialGradient id="av" cx="0.5" cy="0.5" r="0.454" gradientTransform="translate(-0.122) scale(1.244 1)" xlink:href="#b"/><radialGradient id="aw" cx="0.5" cy="0.5" r="0.454" gradientTransform="translate(-0.122) scale(1.243 1)" xlink:href="#b"/><radialGradient id="ax" cx="0.5" cy="0.5" r="0.454" gradientTransform="translate(-0.122) scale(1.244 1)" xlink:href="#b"/><radialGradient id="ay" cx="0.5" cy="0.5" r="0.454" gradientTransform="translate(-0.122) scale(1.243 1)" xlink:href="#b"/><radialGradient id="az" cx="0.5" cy="0.5" r="0.671" gradientTransform="translate(0.19) scale(0.62 1)" xlink:href="#b"/><radialGradient id="ba" cx="0.5" cy="0.5" r="0.671" gradientTransform="translate(0.19) scale(0.62 1)" xlink:href="#b"/><radialGradient id="bb" cx="0.5" cy="0.5" r="0.671" gradientTransform="translate(0.19) scale(0.62 1)" xlink:href="#b"/><radialGradient id="bc" cx="0.5" cy="0.5" r="0.671" gradientTransform="translate(0.19) scale(0.62 1)" xlink:href="#b"/><radialGradient id="bd" cx="0.5" cy="0.5" r="0.671" gradientTransform="translate(0.19) scale(0.62 1)" xlink:href="#b"/><radialGradient id="be" cx="0.5" cy="0.5" r="0.671" gradientTransform="translate(0.19) scale(0.62 1)" xlink:href="#b"/><radialGradient id="bf" cx="0.5" cy="0.5" r="0.671" gradientTransform="translate(0.19) scale(0.62 1)" xlink:href="#b"/><radialGradient id="bg" cx="0.5" cy="0.5" r="0.671" gradientTransform="translate(0.19) scale(0.62 1)" xlink:href="#b"/><radialGradient id="bh" cx="0.5" cy="0.5" r="0.671" gradientTransform="translate(0.19) scale(0.62 1)" xlink:href="#b"/><radialGradient id="bi" cx="0.5" cy="0.5" r="0.671" gradientTransform="translate(0.19) scale(0.62 1)" xlink:href="#b"/></defs><g class="b" transform="translate(11.5 -4655)"><g class="c" transform="translate(0 -14)"><path class="d" d="M-387.043-484.474l2.019,3.507L-644.416-330.481l274.081,159.037a2.02,2.02,0,0,1,1,1.768,2.009,2.009,0,0,1-1.032,1.747L-666.107-2.219V222.387a2.008,2.008,0,0,1-1.024,1.751,1.98,1.98,0,0,1-2.027-.016L-840.585,123.3V417.155l46.793,30.3a2.006,2.006,0,0,1,.946,1.71v83.515h-4.042v-82.4l-46.793-30.3a2,2,0,0,1-.949-1.71V119.755A2.015,2.015,0,0,1-843.615,118a2.043,2.043,0,0,1,2.035.012l171.428,100.835V-3.4a2.02,2.02,0,0,1,1.032-1.768l293.683-164.554L-649.473-328.734a2.025,2.025,0,0,1-1.007-1.751,2.033,2.033,0,0,1,1.007-1.751Z" transform="translate(1040.537 5066.817)"/><path class="e" d="M-481.571-494.4l240.517,140.179a2.025,2.025,0,0,1,1.007,1.743,2.044,2.044,0,0,1-1.007,1.751L-544.978-172.609a1.991,1.991,0,0,1-2.064-.012l-115.3-69.516-155.316,87.778v92.308L-740-18.16a2.027,2.027,0,0,1,1.024,1.764V160.911a2.027,2.027,0,0,1-.983,1.739,2.023,2.023,0,0,1-2,.037l-56.878-30.871V439.5a2.041,2.041,0,0,1-1.032,1.764,2.014,2.014,0,0,1-2.035-.029l-94.072-56.451,2.076-3.466,91.01,54.609V128.416a2.027,2.027,0,0,1,1-1.743,2.007,2.007,0,0,1,1.994-.041l56.883,30.879V-15.216l-77.656-43.891a2.032,2.032,0,0,1-1.028-1.764v-94.668a2.032,2.032,0,0,1,1.028-1.764l157.372-88.946a2.06,2.06,0,0,1,2.043.033L-545.985-176.7l299.895-175.778L-483.615-490.905Z" transform="translate(880.771 5035.923)"/><path class="f" d="M-885.325-483.928-686.4-367.771A2.029,2.029,0,0,1-685.394-366a2.041,2.041,0,0,1-1.04,1.743l-155.974,87.211,272.317,157.3a2.008,2.008,0,0,1,1.011,1.776,2.041,2.041,0,0,1-1.057,1.751l-81.052,43.9V365.974a2.04,2.04,0,0,1-1.02,1.76,2.044,2.044,0,0,1-2.035-.016l-109.839-64.932v288.56h-4.05v-292.1a2.043,2.043,0,0,1,1.024-1.76,2.036,2.036,0,0,1,2.031.016L-655.23,362.43V-73.521a2.014,2.014,0,0,1,1.057-1.78l78.931-42.748L-847.514-275.326a2.006,2.006,0,0,1-1.011-1.768,2.025,2.025,0,0,1,1.036-1.747L-691.5-366.06-887.364-480.438Z" transform="translate(907.586 5068.516)"/><path class="g" d="M-409.939-449.228l1.969,3.536L-723.285-270.408-524.571-157.58a2.041,2.041,0,0,1,1.023,1.772,2.026,2.026,0,0,1-1.052,1.76l-158.03,86.66v111.4a2.022,2.022,0,0,1-1.016,1.76,2.038,2.038,0,0,1-2.027-.008L-809.436-26.45V289.014L-717.85,342.2a2.027,2.027,0,0,1,1.011,1.755V594.574h-4.05V345.115l-91.581-53.187a2.023,2.023,0,0,1-1.011-1.747V-29.977a2.006,2.006,0,0,1,1.016-1.751,1.989,1.989,0,0,1,2.027.008l123.759,72.2V-68.585a2.026,2.026,0,0,1,1.052-1.776l155.9-85.5-198.69-112.815a2.013,2.013,0,0,1-1.02-1.768,2.047,2.047,0,0,1,1.036-1.76Z" transform="translate(1137.45 5176.474)"/><path class="h" d="M-547.253-466.893l35.919,23.948a2.031,2.031,0,0,1,.9,1.76,2.048,2.048,0,0,1-1.023,1.69l-115,64.994,77.4,46.107a2.017,2.017,0,0,1,.991,1.78,2.02,2.02,0,0,1-1.061,1.735l-154.3,83.864L-626-193.244a2.026,2.026,0,0,1,.966,1.792,2.031,2.031,0,0,1-1.094,1.723l-41.671,21.67v150.05a2.031,2.031,0,0,1-1.028,1.764,2.023,2.023,0,0,1-2.035-.02L-862.8-130.762V122.532a2.023,2.023,0,0,1-.95,1.714,2.026,2.026,0,0,1-1.953.111l-41.058-19.849L-905,100.87l38.152,18.439V-134.322a2.021,2.021,0,0,1,1.024-1.76,2.012,2.012,0,0,1,2.039.021L-671.851-21.573V-169.284a2.011,2.011,0,0,1,1.094-1.8l39.6-20.593-77.364-47.735a2.044,2.044,0,0,1-.962-1.776,2.013,2.013,0,0,1,1.061-1.719l154.248-83.831-77.344-46.078a2.007,2.007,0,0,1-.987-1.76,2.016,2.016,0,0,1,1.024-1.739l115.167-65.1L-549.5-463.526Z" transform="translate(847.229 5121.515)"/><path class="i" d="M-183.225-415.78l2.01,3.519-73.162,42.2,116.684,67a2.012,2.012,0,0,1,1.015,1.764,2.02,2.02,0,0,1-1.028,1.751L-605.942-35.7v224.6a2.036,2.036,0,0,1-1,1.755,2.034,2.034,0,0,1-2.019.008l-150.909-86.146V232.748h-4.041V101.033a2.018,2.018,0,0,1,1.007-1.747,1.986,1.986,0,0,1,2.014-.008l150.91,86.146V-36.88a2.026,2.026,0,0,1,1.023-1.76l466.168-262.672-116.671-67a2.04,2.04,0,0,1-1.011-1.755,2.05,2.05,0,0,1,1.02-1.76Z" transform="translate(1291.663 5280.537)"/><path class="j" d="M-156.168-472.079l2.245,3.363L-380.409-317.6l161.368,91.482a2.032,2.032,0,0,1,1.023,1.739,2.028,2.028,0,0,1-.987,1.76L-409.87-109.036a2.021,2.021,0,0,1-2.039.016l-137.248-78.992-239.867,135V83.154L-689.48,136.5a2.03,2.03,0,0,1,1.069,1.78V271.7a2.024,2.024,0,0,1-.987,1.735,2.033,2.033,0,0,1-2,.041l-56.882-30.883V552.355a2.017,2.017,0,0,1-1.028,1.76,2.014,2.014,0,0,1-2.035-.025L-808.129,520v49.458h-4.049V516.436a2.033,2.033,0,0,1,1.023-1.764,2.032,2.032,0,0,1,2.039.029l56.788,34.082V239.2a2.026,2.026,0,0,1,.987-1.739,2.033,2.033,0,0,1,2-.037l56.882,30.875v-128.8L-792,86.146a2.01,2.01,0,0,1-1.069-1.78V-54.189a2.022,2.022,0,0,1,1.032-1.764l241.9-136.15a2.015,2.015,0,0,1,2,.008l137.219,78.976L-224.069-224.31l-161.2-91.392a2.02,2.02,0,0,1-1.02-1.681,2,2,0,0,1,.9-1.755Z" transform="translate(1141.504 5105.38)"/><path class="k" d="M-795.733-433.883l155.654,90.66a2,2,0,0,1,1.007,1.76,2.036,2.036,0,0,1-1.036,1.751l-155.97,87.2L-523.77-95.2a2.03,2.03,0,0,1,1.016,1.776,2.034,2.034,0,0,1-1.061,1.755l-81.048,43.9V470.266h-4.045V-48.977a2.018,2.018,0,0,1,1.061-1.78l78.927-42.748L-801.189-250.783a2,2,0,0,1-1.007-1.764,2.023,2.023,0,0,1,1.032-1.755l155.987-87.211-152.595-88.88Z" transform="translate(1172.56 5224.215)"/><path class="l" d="M-377.426-378.951a2.125,2.125,0,0,1,1.032.28l150.839,90.2-2.064,3.482-149.84-89.607L-573.509-265.68l116.75,69.718a2.029,2.029,0,0,1,.991,1.776,2.031,2.031,0,0,1-1.052,1.739l-158.026,86.66v91.17a2.009,2.009,0,0,1-1.02,1.751,2,2,0,0,1-2.035-.012L-731.16-79.5V116.571l158.067,89.435-1.994,3.523L-734.182,119.51a2.022,2.022,0,0,1-1.028-1.764V-83.04a2,2,0,0,1,1.02-1.751,2,2,0,0,1,2.031.012l113.267,66.622v-88.831a2.031,2.031,0,0,1,1.052-1.776L-461.861-194.3l-116.733-69.709a2.006,2.006,0,0,1-.982-1.764,2.019,2.019,0,0,1,1.036-1.743L-378.412-378.7A2.065,2.065,0,0,1-377.426-378.951Z" transform="translate(1380.966 5395.119)"/><path class="m" d="M-587.818-420.759l122.851,71.7a2.01,2.01,0,0,1,1,1.764,2.014,2.014,0,0,1-1.028,1.747l-140.685,79.116,77.389,46.111a2.012,2.012,0,0,1,.987,1.776,2.011,2.011,0,0,1-1.061,1.735L-682.561-133l78.672,45.589a2.014,2.014,0,0,1,1.007,1.772,2.041,2.041,0,0,1-1.044,1.751l-43.11,23.865V29.437a2.021,2.021,0,0,1-1.023,1.76,2.024,2.024,0,0,1-2.035-.016L-768.974-39.656v376.2h-4.041V-43.216A2.022,2.022,0,0,1-772-44.976a2.015,2.015,0,0,1,2.035.021l118.879,70.836v-87.1a2.009,2.009,0,0,1,1.044-1.768l41.025-22.719L-687.7-131.311a2.008,2.008,0,0,1-1.011-1.776,2.049,2.049,0,0,1,1.057-1.755l154.248-83.823-77.34-46.078a2.039,2.039,0,0,1-.991-1.764,2.025,2.025,0,0,1,1.032-1.739l140.656-79.1-119.8-69.919Z" transform="translate(1263.347 5265.047)"/><path class="n" d="M-749.739-215.807a12.63,12.63,0,0,1,6.327,1.9c7.215,4.165,12.864,13.912,12.864,22.2,0,6.22-3.437,10.4-8.556,10.4a12.688,12.688,0,0,1-6.327-1.9c-7.219-4.169-12.868-13.912-12.868-22.188C-758.3-211.622-754.861-215.807-749.739-215.807Zm10.635,30.46c2.824,0,4.51-2.38,4.51-6.36,0-6.742-4.962-15.3-10.837-18.7a8.965,8.965,0,0,0-4.309-1.361c-2.82,0-4.51,2.384-4.51,6.372,0,6.734,4.966,15.294,10.837,18.69A8.994,8.994,0,0,0-739.1-185.347Z" transform="translate(1309.135 5902.691)"/><path class="o" d="M-688.55-238.146a12.708,12.708,0,0,1,6.327,1.9c7.211,4.161,12.86,13.908,12.86,22.192,0,6.319-3.359,10.405-8.551,10.405a12.711,12.711,0,0,1-6.327-1.9c-7.215-4.165-12.864-13.912-12.864-22.188C-697.1-233.965-693.664-238.146-688.55-238.146Zm10.635,30.452c2.82,0,4.506-2.376,4.506-6.356,0-6.742-4.962-15.3-10.833-18.689a8.946,8.946,0,0,0-4.308-1.361c-2.829,0-4.51,2.385-4.51,6.368,0,6.734,4.966,15.294,10.837,18.69A8.948,8.948,0,0,0-677.914-207.694Z" transform="translate(1499.518 5833.19)"/><path class="p" d="M-767.395-238.77a12.713,12.713,0,0,1,6.331,1.9c7.207,4.165,12.855,13.912,12.855,22.192,0,6.323-3.355,10.41-8.551,10.41a12.677,12.677,0,0,1-6.327-1.9c-7.211-4.16-12.864-13.912-12.864-22.192C-775.95-234.585-772.513-238.77-767.395-238.77Zm10.636,30.456c2.824,0,4.51-2.38,4.51-6.364,0-6.738-4.966-15.3-10.837-18.689a8.92,8.92,0,0,0-4.309-1.361c-2.82,0-4.51,2.38-4.51,6.364,0,6.738,4.962,15.3,10.841,18.694A8.928,8.928,0,0,0-756.759-208.314Z" transform="translate(1254.216 5831.249)"/><path class="q" d="M-784.874-196.826a12.736,12.736,0,0,1,6.335,1.9c7.207,4.165,12.86,13.908,12.86,22.192,0,6.228-3.437,10.405-8.555,10.405a12.713,12.713,0,0,1-6.331-1.9c-7.207-4.161-12.86-13.908-12.86-22.192C-793.425-192.645-789.988-196.826-784.874-196.826Zm10.639,30.448c2.829,0,4.51-2.38,4.51-6.36,0-6.738-4.962-15.3-10.841-18.689a8.943,8.943,0,0,0-4.308-1.357c-2.816,0-4.5,2.38-4.5,6.36,0,6.738,4.962,15.3,10.837,18.689A8.866,8.866,0,0,0-774.234-166.378Z" transform="translate(1199.848 5961.744)"/><path class="r" d="M-806.508-220.436a12.766,12.766,0,0,1,6.327,1.9c7.215,4.165,12.864,13.912,12.864,22.192,0,6.228-3.433,10.409-8.556,10.409a12.718,12.718,0,0,1-6.327-1.9c-7.211-4.165-12.86-13.912-12.86-22.188C-815.059-216.345-811.7-220.436-806.508-220.436Zm10.635,30.456c2.824,0,4.506-2.38,4.506-6.364,0-6.734-4.962-15.294-10.833-18.685a8.937,8.937,0,0,0-4.308-1.357c-2.824,0-4.51,2.38-4.51,6.364,0,6.738,4.962,15.294,10.837,18.689A8.971,8.971,0,0,0-795.872-189.98Z" transform="translate(1132.541 5888.289)"/><path class="s" d="M-758.03-259.941a12.716,12.716,0,0,1,6.327,1.9c7.211,4.165,12.864,13.912,12.864,22.2,0,6.22-3.437,10.406-8.555,10.406a12.679,12.679,0,0,1-6.332-1.9c-7.215-4.165-12.864-13.912-12.864-22.192C-766.589-255.76-763.152-259.941-758.03-259.941Zm10.636,30.456c2.824,0,4.51-2.38,4.51-6.36,0-6.738-4.962-15.3-10.841-18.7a8.975,8.975,0,0,0-4.3-1.353c-2.824,0-4.51,2.38-4.51,6.36,0,6.738,4.962,15.3,10.837,18.693A8.98,8.98,0,0,0-747.394-229.485Z" transform="translate(1283.34 5765.382)"/><path class="t" d="M-827.35-238.972a12.742,12.742,0,0,1,6.331,1.9c7.211,4.169,12.86,13.916,12.86,22.192,0,6.228-3.437,10.414-8.551,10.414a12.709,12.709,0,0,1-6.331-1.9c-7.207-4.165-12.86-13.912-12.86-22.2C-835.9-234.787-832.464-238.972-827.35-238.972Zm10.64,30.456c2.816,0,4.506-2.376,4.506-6.364,0-6.73-4.962-15.289-10.837-18.689a8.91,8.91,0,0,0-4.308-1.357c-2.821,0-4.51,2.38-4.51,6.36,0,6.742,4.966,15.3,10.841,18.7A8.932,8.932,0,0,0-816.71-208.516Z" transform="translate(1067.697 5830.62)"/><path class="u" d="M-852.271-224.078a12.722,12.722,0,0,1,6.327,1.9c7.211,4.161,12.86,13.908,12.86,22.192,0,6.224-3.437,10.405-8.552,10.405a12.79,12.79,0,0,1-6.335-1.9c-7.207-4.165-12.856-13.912-12.856-22.2C-860.827-219.9-857.39-224.078-852.271-224.078Zm10.635,30.447c2.82,0,4.506-2.376,4.506-6.36,0-6.734-4.958-15.3-10.841-18.689a8.928,8.928,0,0,0-4.3-1.357c-2.829,0-4.51,2.38-4.51,6.36,0,6.738,4.958,15.3,10.837,18.694A8.944,8.944,0,0,0-841.636-193.631Z" transform="translate(990.148 5876.958)"/><path class="v" d="M-893.051-286.417a12.74,12.74,0,0,1,6.335,1.9c7.211,4.165,12.864,13.912,12.864,22.192,0,6.224-3.441,10.41-8.56,10.41a12.7,12.7,0,0,1-6.327-1.9c-7.211-4.161-12.864-13.912-12.864-22.2C-901.6-282.236-898.161-286.417-893.051-286.417Zm10.639,30.451c2.821,0,4.506-2.376,4.506-6.36,0-6.738-4.958-15.3-10.833-18.694a8.969,8.969,0,0,0-4.312-1.357c-2.816,0-4.506,2.38-4.506,6.36,0,6.738,4.962,15.3,10.841,18.7A8.933,8.933,0,0,0-882.411-255.966Z" transform="translate(863.289 5683.01)"/><path class="w" d="M-903.245-333.168a12.687,12.687,0,0,1,6.331,1.9c7.215,4.161,12.864,13.908,12.864,22.188,0,6.224-3.441,10.409-8.555,10.409a12.665,12.665,0,0,1-6.327-1.9c-7.211-4.156-12.864-13.9-12.864-22.188C-911.8-329.082-908.433-333.168-903.245-333.168Zm10.64,30.448c2.824,0,4.51-2.376,4.51-6.36,0-6.734-4.962-15.294-10.837-18.69a8.9,8.9,0,0,0-4.313-1.353c-2.82,0-4.5,2.38-4.5,6.36,0,6.742,4.962,15.3,10.833,18.689A8.974,8.974,0,0,0-892.6-302.72Z" transform="translate(831.574 5537.559)"/><path class="x" d="M-875.607-487.5a26.169,26.169,0,0,1,12.9,3.12c3.827,2.208,5.94,5.262,5.94,8.6,0,3.322-2.089,6.36-5.871,8.539-6.9,3.988-18.714,3.967-25.65-.037-3.827-2.216-5.937-5.275-5.937-8.613,0-3.318,2.076-6.352,5.863-8.539A25.936,25.936,0,0,1-875.607-487.5Zm.214,19.294a21.83,21.83,0,0,0,10.73-2.532c2.483-1.435,3.848-3.223,3.848-5.032s-1.431-3.671-3.922-5.11c-5.723-3.3-15.914-3.326-21.6-.045-2.479,1.435-3.844,3.223-3.844,5.036s1.427,3.671,3.91,5.11A22.155,22.155,0,0,0-875.394-468.206Z" transform="translate(886.234 5057.403)"/><path class="y" d="M-807.937-470.758a26.106,26.106,0,0,1,12.893,3.125c3.828,2.208,5.941,5.266,5.941,8.609,0,3.322-2.084,6.348-5.867,8.535-6.9,3.98-18.722,3.959-25.65-.049-3.836-2.208-5.945-5.266-5.945-8.6s2.084-6.352,5.867-8.531A25.844,25.844,0,0,1-807.937-470.758Zm.21,19.294A21.828,21.828,0,0,0-797-453.993c2.483-1.435,3.848-3.223,3.848-5.032s-1.427-3.671-3.922-5.106c-5.723-3.306-15.919-3.322-21.6-.045-2.479,1.431-3.844,3.215-3.844,5.032s1.431,3.667,3.918,5.106A22.071,22.071,0,0,0-807.728-451.464Z" transform="translate(1096.744 5109.49)"/><path class="z" d="M-788.751-438.045a26.219,26.219,0,0,1,12.9,3.112c3.828,2.212,5.937,5.271,5.937,8.609,0,3.318-2.08,6.352-5.866,8.539-6.9,3.988-18.714,3.959-25.654-.041-3.827-2.216-5.937-5.271-5.937-8.613,0-3.318,2.08-6.352,5.867-8.531A25.893,25.893,0,0,1-788.751-438.045Zm.209,19.29a21.867,21.867,0,0,0,10.734-2.532c2.479-1.431,3.844-3.223,3.844-5.036s-1.427-3.667-3.918-5.106c-5.723-3.3-15.918-3.322-21.6-.041-2.479,1.435-3.844,3.219-3.844,5.032s1.427,3.671,3.918,5.11A22.123,22.123,0,0,0-788.542-418.755Z" transform="translate(1156.447 5211.267)"/><path class="aa" d="M-783.783-498.114a26.209,26.209,0,0,1,12.9,3.116c3.827,2.208,5.936,5.27,5.936,8.609,0,3.318-2.08,6.352-5.866,8.539-6.9,3.979-18.71,3.959-25.654-.045-3.823-2.212-5.933-5.271-5.933-8.609,0-3.318,2.081-6.352,5.867-8.535A25.922,25.922,0,0,1-783.783-498.114Zm.214,19.29a21.9,21.9,0,0,0,10.73-2.524c2.483-1.439,3.848-3.231,3.848-5.04s-1.431-3.667-3.918-5.1c-5.727-3.306-15.919-3.326-21.6-.045-2.483,1.435-3.848,3.219-3.848,5.032s1.427,3.671,3.914,5.106A22.121,22.121,0,0,0-783.57-478.824Z" transform="translate(1171.916 5024.381)"/><path class="ab" d="M-717.106-488.272a26.183,26.183,0,0,1,12.9,3.12c3.823,2.208,5.932,5.266,5.932,8.6s-2.08,6.356-5.867,8.543c-6.9,3.984-18.714,3.955-25.649-.049-3.828-2.208-5.937-5.266-5.937-8.6,0-3.318,2.08-6.352,5.863-8.535A25.9,25.9,0,0,1-717.106-488.272Zm.214,19.29a21.81,21.81,0,0,0,10.734-2.533c2.479-1.427,3.844-3.219,3.844-5.028s-1.431-3.675-3.918-5.11c-5.723-3.305-15.918-3.326-21.6-.049-2.483,1.439-3.844,3.223-3.844,5.04s1.427,3.667,3.914,5.11A22.206,22.206,0,0,0-716.893-468.982Z" transform="translate(1379.361 5055.001)"/><path class="ac" d="M-699.521-453.3a26.165,26.165,0,0,1,12.9,3.12c3.827,2.208,5.941,5.266,5.941,8.6s-2.084,6.356-5.871,8.539c-6.9,3.988-18.718,3.959-25.65-.045-3.836-2.208-5.941-5.271-5.941-8.613,0-3.314,2.084-6.344,5.863-8.527A25.907,25.907,0,0,1-699.521-453.3Zm.218,19.29a21.779,21.779,0,0,0,10.726-2.528c2.483-1.439,3.848-3.219,3.848-5.036s-1.431-3.667-3.922-5.106c-5.723-3.305-15.923-3.326-21.6-.041-2.479,1.431-3.848,3.215-3.848,5.024s1.435,3.675,3.922,5.118A22.188,22.188,0,0,0-699.3-434.01Z" transform="translate(1434.062 5163.806)"/><path class="ad" d="M-636.078-475.9a26.136,26.136,0,0,1,12.893,3.12c3.836,2.208,5.941,5.266,5.941,8.609,0,3.318-2.076,6.352-5.863,8.531-6.911,3.984-18.722,3.963-25.658-.041-3.828-2.208-5.941-5.275-5.941-8.613,0-3.318,2.088-6.352,5.871-8.531A25.926,25.926,0,0,1-636.078-475.9Zm.209,19.294a21.9,21.9,0,0,0,10.735-2.532c2.483-1.439,3.848-3.223,3.848-5.032s-1.427-3.671-3.918-5.11c-5.735-3.3-15.923-3.326-21.608-.041-2.479,1.431-3.848,3.215-3.848,5.028s1.43,3.671,3.926,5.11A22.083,22.083,0,0,0-635.869-456.6Z" transform="translate(1631.429 5093.508)"/><path class="ae" d="M-716.361-424.353a26.155,26.155,0,0,1,12.889,3.116c3.84,2.212,5.945,5.271,5.945,8.613,0,3.318-2.084,6.352-5.866,8.531-6.9,3.98-18.71,3.963-25.654-.045-3.832-2.2-5.941-5.27-5.941-8.609,0-3.318,2.088-6.352,5.871-8.535A25.946,25.946,0,0,1-716.361-424.353Zm.21,19.281a21.9,21.9,0,0,0,10.734-2.52c2.479-1.439,3.844-3.223,3.844-5.032s-1.427-3.671-3.918-5.114c-5.727-3.3-15.914-3.322-21.6-.037-2.487,1.431-3.852,3.215-3.852,5.028s1.431,3.667,3.918,5.106A22.1,22.1,0,0,0-716.152-405.071Z" transform="translate(1381.654 5253.865)"/><path class="af" d="M-606.293-419.649a26.134,26.134,0,0,1,12.889,3.12c3.836,2.208,5.945,5.262,5.945,8.609,0,3.322-2.08,6.352-5.866,8.531-6.9,3.988-18.718,3.967-25.65-.041-3.836-2.208-5.945-5.271-5.945-8.609,0-3.318,2.084-6.348,5.867-8.531A25.9,25.9,0,0,1-606.293-419.649Zm.206,19.294a21.85,21.85,0,0,0,10.739-2.537c2.479-1.427,3.844-3.219,3.844-5.028s-1.427-3.667-3.922-5.106c-5.723-3.306-15.919-3.326-21.6-.045-2.475,1.427-3.844,3.219-3.844,5.032s1.427,3.671,3.918,5.11A22.167,22.167,0,0,0-606.088-400.355Z" transform="translate(1724.096 5268.5)"/><path class="ag" d="M-595.5-358.049a26.23,26.23,0,0,1,12.888,3.112c3.836,2.216,5.945,5.283,5.945,8.617s-2.088,6.352-5.867,8.531c-6.9,3.984-18.718,3.967-25.65-.041-3.832-2.208-5.945-5.271-5.945-8.613,0-3.322,2.08-6.344,5.867-8.526A25.854,25.854,0,0,1-595.5-358.049Zm.205,19.29a21.941,21.941,0,0,0,10.739-2.528c2.475-1.435,3.844-3.215,3.844-5.032s-1.431-3.667-3.922-5.11c-5.723-3.306-15.918-3.318-21.6-.045-2.479,1.439-3.84,3.227-3.84,5.032s1.418,3.671,3.914,5.11A22.123,22.123,0,0,0-595.3-338.759Z" transform="translate(1757.669 5460.149)"/><path class="ah" d="M-668.158,606.274l-1.992-3.454L-414.656,454.6-684.61,297.955a1.988,1.988,0,0,1-.988-1.741,1.969,1.969,0,0,1,1.012-1.721l291.293-163.218V-89.952a1.975,1.975,0,0,1,1-1.725,1.975,1.975,0,0,1,2,.012L-221.439,7.65V-281.787l-46.084-29.84a1.978,1.978,0,0,1-.936-1.685v-82.262h3.984v81.159l46.088,29.84a1.98,1.98,0,0,1,.936,1.681V11.135a1.981,1.981,0,0,1-1,1.729,2,2,0,0,1-2-.012L-389.31-86.467v218.91a1.987,1.987,0,0,1-1.016,1.741L-679.591,296.262l269.914,156.617a1.994,1.994,0,0,1,1,1.725,2,2,0,0,1-1,1.725Z" transform="translate(2096.727 5096.462)"/><path class="ai" d="M-440.178,556.447l-236.9-138.066a2,2,0,0,1-.988-1.721,2.009,2.009,0,0,1,.988-1.721L-377.722,239.5a1.96,1.96,0,0,1,2.031.012l113.572,68.471,152.98-86.461V130.6l-76.494-43.232a2,2,0,0,1-1.008-1.737V-89.006a2,2,0,0,1,.968-1.713,2,2,0,0,1,1.972-.04l56.027,30.41V-363.406a2,2,0,0,1,1.012-1.733,2.009,2.009,0,0,1,2.008.024L-32-309.514l-2.047,3.418-89.639-53.788V-57a2,2,0,0,1-.976,1.717,1.993,1.993,0,0,1-1.968.04l-56.023-30.414V84.473l76.486,43.228a2,2,0,0,1,1.012,1.737v93.244a2,2,0,0,1-1.012,1.737l-155,87.608a2.008,2.008,0,0,1-2.008-.032L-376.73,243.528-672.114,416.66-438.17,553.005Z" transform="translate(2119.213 5186.498)"/><path class="aj" d="M-291.845,648.6-487.779,534.185a2,2,0,0,1-.992-1.737,2,2,0,0,1,1.024-1.721l153.625-85.9L-602.339,289.893a1.97,1.97,0,0,1-1-1.753,1.989,1.989,0,0,1,1.044-1.721l79.828-43.24v-431.7a2,2,0,0,1,1-1.729,2,2,0,0,1,2,.016l108.19,63.95V-410.5h3.983v287.708a2.01,2.01,0,0,1-1,1.733,2,2,0,0,1-2-.016l-108.19-63.954V244.362a2,2,0,0,1-1.044,1.757l-77.741,42.1,268.173,154.912a1.977,1.977,0,0,1,1,1.741,2,2,0,0,1-1.02,1.725l-153.642,85.9,192.914,112.656Z" transform="translate(2342.153 5051.932)"/><path class="ak" d="M-698.069,590.106l-1.94-3.482,310.573-172.65-195.722-111.13a1.987,1.987,0,0,1-1.012-1.741,2.007,2.007,0,0,1,1.036-1.737l155.657-85.353V104.289a2,2,0,0,1,1-1.729,2,2,0,0,1,2,.008l121.9,71.12V-137.028l-90.213-52.382a2.007,2.007,0,0,1-.992-1.729V-437.993h3.988v245.707l90.209,52.386a1.994,1.994,0,0,1,.992,1.721V177.162a1.985,1.985,0,0,1-1,1.725,1.948,1.948,0,0,1-2-.008l-121.9-71.12V215.192a1.992,1.992,0,0,1-1.032,1.749l-153.558,84.206,195.7,111.122a1.971,1.971,0,0,1,1,1.737,2,2,0,0,1-1.02,1.737Z" transform="translate(2053.732 4969.908)"/><path class="al" d="M-566.642,274.362l-35.385-23.586a1.98,1.98,0,0,1-.884-1.733,2.023,2.023,0,0,1,1.008-1.665l113.269-64.018-76.243-45.411a1.982,1.982,0,0,1-.968-1.753,1.985,1.985,0,0,1,1.04-1.709l151.984-82.6L-489.084,4.83a1.993,1.993,0,0,1-.948-1.765,2,2,0,0,1,1.072-1.7l41.05-21.339v-147.8a2,2,0,0,1,1.011-1.737,2,2,0,0,1,2,.02L-255.841-56.71V-306.193a2,2,0,0,1,.928-1.689,2.013,2.013,0,0,1,1.928-.107l40.44,19.547-1.737,3.589-37.576-18.165V-53.2a1.994,1.994,0,0,1-1.012,1.729,1.973,1.973,0,0,1-2-.02L-443.927-164.259V-18.768A1.978,1.978,0,0,1-445-17l-39,20.28L-407.8,50.3a2.011,2.011,0,0,1,.948,1.749,2,2,0,0,1-1.048,1.7L-559.83,136.312l76.183,45.387a1.969,1.969,0,0,1,.972,1.733,2,2,0,0,1-1.008,1.713l-113.437,64.114,32.684,21.789Z" transform="translate(2343.414 5357.182)"/><path class="am" d="M-759.375,264.508l-1.98-3.462,72.064-41.563-114.934-66a1.987,1.987,0,0,1-1-1.733,1.989,1.989,0,0,1,1.012-1.729l461.2-259.872V-331.077a1.99,1.99,0,0,1,.988-1.729,2,2,0,0,1,1.992-.008l148.63,84.851v-126.3h3.983v129.729a1.992,1.992,0,0,1-.992,1.725,1.971,1.971,0,0,1-1.988.008l-148.63-84.851v218.958a2,2,0,0,1-1.012,1.733L-799.2,151.768l114.914,65.986a2.007,2.007,0,0,1,1,1.733,2.013,2.013,0,0,1-1.008,1.729Z" transform="translate(1739.842 5160.061)"/><path class="an" d="M-761.616,611.668l-2.211-3.314,223.081-148.845L-699.686,369.4a1.984,1.984,0,0,1-1.012-1.709,2,2,0,0,1,.972-1.737l187.99-111.871a2,2,0,0,1,2.012-.016l135.186,77.809L-138.283,198.9V64.785l-98.049-52.542a2,2,0,0,1-1.052-1.753V-120.923a2,2,0,0,1,.976-1.713,2,2,0,0,1,1.964-.04l56.031,30.418v-305.1a1.983,1.983,0,0,1,1.016-1.733,1.992,1.992,0,0,1,2,.024l55.927,33.572V-414.2h3.991v52.227a2,2,0,0,1-1.011,1.733,2,2,0,0,1-2.008-.024l-55.932-33.573V-88.912A2.007,2.007,0,0,1-175.4-87.2a1.984,1.984,0,0,1-1.968.036l-56.027-30.41V9.292l98.044,52.546A1.98,1.98,0,0,1-134.3,63.59V200.063a2,2,0,0,1-1.02,1.737L-373.573,335.9a1.993,1.993,0,0,1-1.968-.008L-510.7,258.106-694.738,367.622l158.776,90.018a1.987,1.987,0,0,1,1,1.657,1.982,1.982,0,0,1-.888,1.729Z" transform="translate(1863.335 5040.881)"/><path class="ao" d="M-411.436,471.489l-153.315-89.3a1.969,1.969,0,0,1-.988-1.737,1.992,1.992,0,0,1,1.02-1.721L-411.1,292.84-679.311,137.9a1.986,1.986,0,0,1-1-1.749,2,2,0,0,1,1.04-1.729l79.828-43.236V-419.061h3.983V92.373a1.994,1.994,0,0,1-1.04,1.753l-77.741,42.1,268.17,154.916a1.98,1.98,0,0,1,1,1.737,1.987,1.987,0,0,1-1.02,1.725l-153.637,85.9,150.3,87.54Z" transform="translate(2112.512 5026.391)"/><path class="ap" d="M-655.735,182.779a2.116,2.116,0,0,1-1.02-.275L-805.325,93.657l2.032-3.434L-655.7,178.488-462.61,71.21-577.6,2.544a2,2,0,0,1-.972-1.753,1.963,1.963,0,0,1,1.036-1.709l155.649-85.357v-89.8a1.983,1.983,0,0,1,1-1.729,1.982,1.982,0,0,1,2,.012l111.56,65.623V-305.289l-155.689-88.09,1.96-3.47,156.7,88.663a1.99,1.99,0,0,1,1.016,1.737v197.766a1.989,1.989,0,0,1-1.008,1.725,1.974,1.974,0,0,1-2-.012L-417.9-172.588v87.5a2,2,0,0,1-1.036,1.745L-572.573.9-457.6,69.561a1.985,1.985,0,0,1,.972,1.737,1.992,1.992,0,0,1-1.024,1.717L-654.767,182.524A2.008,2.008,0,0,1-655.735,182.779Z" transform="translate(1739.528 5092.662)"/><path class="aq" d="M-595.3,349.818-716.306,279.2a2,2,0,0,1-.988-1.733,2,2,0,0,1,1.016-1.721l138.568-77.924L-653.934,152.4a1.988,1.988,0,0,1-.972-1.749,2,2,0,0,1,1.044-1.713l151.877-82.545-77.486-44.9a2,2,0,0,1-.992-1.745,2.011,2.011,0,0,1,1.028-1.725l42.463-23.506V-93.606a1.97,1.97,0,0,1,1.012-1.729,1.974,1.974,0,0,1,2,.016l117.089,69.77V-396.093h3.983V-22.044a1.993,1.993,0,0,1-1,1.733,1.98,1.98,0,0,1-2.008-.02L-532.988-90.1V-4.313a1.983,1.983,0,0,1-1.028,1.745l-40.412,22.375,77.514,44.921a1.975,1.975,0,0,1,.992,1.749,1.992,1.992,0,0,1-1.04,1.725l-151.925,82.565,76.175,45.387a2.008,2.008,0,0,1,.976,1.733,1.978,1.978,0,0,1-1.02,1.713L-711.3,277.507l118,68.874Z" transform="translate(2002.164 5094.914)"/><path class="ar" d="M-643.8-391.73a12.477,12.477,0,0,1-6.23-1.876c-7.106-4.1-12.671-13.7-12.671-21.861,0-6.126,3.39-10.245,8.429-10.245a12.56,12.56,0,0,1,6.234,1.868c7.111,4.107,12.671,13.707,12.671,21.857C-635.365-395.853-638.751-391.73-643.8-391.73Zm-10.473-30c-2.784,0-4.441,2.342-4.441,6.262,0,6.64,4.884,15.069,10.676,18.415a8.8,8.8,0,0,0,4.239,1.338c2.784,0,4.449-2.346,4.449-6.274,0-6.632-4.892-15.061-10.68-18.407A8.818,8.818,0,0,0-654.27-421.73Z" transform="translate(2165.045 5006.544)"/><path class="as" d="M-706-369.025a12.524,12.524,0,0,1-6.234-1.872c-7.1-4.1-12.663-13.7-12.663-21.857,0-6.226,3.306-10.249,8.421-10.249a12.548,12.548,0,0,1,6.234,1.872c7.106,4.1,12.667,13.7,12.667,21.853C-697.579-373.14-700.961-369.025-706-369.025Zm-10.476-29.991c-2.781,0-4.442,2.342-4.442,6.262,0,6.64,4.888,15.069,10.676,18.407A8.814,8.814,0,0,0-706-373.009c2.784,0,4.442-2.346,4.442-6.27,0-6.632-4.892-15.061-10.676-18.407A8.782,8.782,0,0,0-716.48-399.017Z" transform="translate(1979.469 5074.296)"/><path class="at" d="M-625.855-368.384a12.511,12.511,0,0,1-6.23-1.872c-7.1-4.1-12.667-13.7-12.667-21.857,0-6.23,3.306-10.257,8.425-10.257a12.532,12.532,0,0,1,6.234,1.876c7.1,4.1,12.671,13.707,12.671,21.857C-617.423-372.507-620.812-368.384-625.855-368.384Zm-10.473-30c-2.784,0-4.441,2.338-4.441,6.266,0,6.636,4.891,15.065,10.676,18.407a8.77,8.77,0,0,0,4.239,1.338c2.78,0,4.445-2.342,4.445-6.27,0-6.632-4.888-15.065-10.676-18.407A8.8,8.8,0,0,0-636.328-398.38Z" transform="translate(2218.586 5076.184)"/><path class="au" d="M-608.083-411.031a12.521,12.521,0,0,1-6.238-1.868c-7.106-4.1-12.667-13.7-12.667-21.857,0-6.134,3.386-10.249,8.425-10.249a12.546,12.546,0,0,1,6.234,1.868c7.1,4.1,12.667,13.7,12.667,21.861C-599.663-415.15-603.049-411.031-608.083-411.031Zm-10.481-29.991c-2.784,0-4.441,2.346-4.441,6.266,0,6.636,4.884,15.065,10.676,18.407a8.793,8.793,0,0,0,4.247,1.335c2.772,0,4.433-2.342,4.433-6.262,0-6.636-4.884-15.065-10.672-18.411A8.778,8.778,0,0,0-618.564-441.023Z" transform="translate(2271.583 4948.985)"/><path class="av" d="M-586.092-387.028a12.512,12.512,0,0,1-6.23-1.872C-599.428-393-605-402.6-605-410.758c0-6.131,3.386-10.249,8.429-10.249a12.559,12.559,0,0,1,6.238,1.868c7.1,4.1,12.664,13.7,12.664,21.857C-577.667-391.056-580.973-387.028-586.092-387.028Zm-10.476-30c-2.781,0-4.438,2.346-4.438,6.266,0,6.636,4.888,15.065,10.676,18.407a8.793,8.793,0,0,0,4.239,1.334c2.781,0,4.442-2.342,4.442-6.266,0-6.636-4.888-15.065-10.672-18.407A8.83,8.83,0,0,0-596.568-417.024Z" transform="translate(2337.195 5020.584)"/><path class="aw" d="M-635.369-346.866a12.528,12.528,0,0,1-6.238-1.872c-7.1-4.1-12.663-13.7-12.663-21.861,0-6.127,3.382-10.249,8.425-10.249a12.5,12.5,0,0,1,6.238,1.876c7.1,4.1,12.667,13.7,12.667,21.857C-626.94-350.985-630.325-346.866-635.369-346.866Zm-10.477-30c-2.776,0-4.437,2.346-4.437,6.266,0,6.636,4.884,15.065,10.676,18.415a8.821,8.821,0,0,0,4.238,1.334c2.781,0,4.446-2.346,4.446-6.266,0-6.636-4.9-15.069-10.684-18.411A8.8,8.8,0,0,0-645.845-376.866Z" transform="translate(2190.192 5140.394)"/><path class="ax" d="M-564.912-368.182a12.525,12.525,0,0,1-6.234-1.872c-7.1-4.1-12.664-13.7-12.664-21.857,0-6.13,3.382-10.253,8.425-10.253a12.512,12.512,0,0,1,6.23,1.872c7.1,4.1,12.667,13.7,12.667,21.865C-556.487-372.3-559.872-368.182-564.912-368.182Zm-10.472-30c-2.777,0-4.442,2.338-4.442,6.266,0,6.632,4.884,15.061,10.672,18.411a8.8,8.8,0,0,0,4.242,1.334c2.777,0,4.442-2.342,4.442-6.262,0-6.644-4.888-15.077-10.676-18.416A8.8,8.8,0,0,0-575.384-398.178Z" transform="translate(2400.408 5076.799)"/><path class="ay" d="M-539.571-383.328A12.526,12.526,0,0,1-545.8-385.2c-7.1-4.095-12.667-13.7-12.667-21.853,0-6.13,3.386-10.249,8.429-10.249a12.536,12.536,0,0,1,6.234,1.868c7.1,4.1,12.667,13.7,12.667,21.861C-531.142-387.443-534.528-383.328-539.571-383.328Zm-10.473-29.991c-2.78,0-4.445,2.342-4.445,6.266,0,6.632,4.888,15.065,10.679,18.407a8.791,8.791,0,0,0,4.239,1.335c2.784,0,4.441-2.342,4.441-6.262,0-6.636-4.887-15.069-10.676-18.411A8.778,8.778,0,0,0-550.043-413.32Z" transform="translate(2476 5031.635)"/><path class="az" d="M-498.117-319.952a12.575,12.575,0,0,1-6.242-1.868c-7.1-4.107-12.663-13.707-12.663-21.861,0-6.13,3.382-10.253,8.425-10.253a12.467,12.467,0,0,1,6.23,1.876c7.107,4.1,12.672,13.7,12.672,21.861C-489.7-324.071-493.086-319.952-498.117-319.952Zm-10.48-30c-2.777,0-4.441,2.342-4.441,6.266,0,6.636,4.884,15.069,10.671,18.411a8.807,8.807,0,0,0,4.25,1.334c2.773,0,4.438-2.342,4.438-6.262,0-6.636-4.888-15.069-10.68-18.415A8.777,8.777,0,0,0-508.6-349.948Z" transform="translate(2599.664 5220.69)"/><path class="ba" d="M-487.759-272.43a12.552,12.552,0,0,1-6.23-1.872c-7.106-4.1-12.671-13.7-12.671-21.853,0-6.13,3.39-10.253,8.421-10.253A12.515,12.515,0,0,1-492-304.537c7.1,4.1,12.667,13.7,12.667,21.853C-479.334-276.458-482.644-272.43-487.759-272.43Zm-10.48-30c-2.777,0-4.438,2.342-4.438,6.27,0,6.632,4.892,15.062,10.676,18.408a8.827,8.827,0,0,0,4.242,1.33c2.784,0,4.442-2.342,4.442-6.266,0-6.636-4.892-15.069-10.672-18.408A8.876,8.876,0,0,0-498.239-302.426Z" transform="translate(2630.578 5362.481)"/><path class="bb" d="M-508.366-123.854a25.773,25.773,0,0,1-12.7-3.071c-3.772-2.175-5.852-5.186-5.852-8.473,0-3.27,2.055-6.262,5.78-8.409,6.8-3.928,18.431-3.908,25.267.036,3.768,2.183,5.852,5.194,5.852,8.481,0,3.27-2.051,6.258-5.776,8.413A25.571,25.571,0,0,1-508.366-123.854Zm-.207-19a21.565,21.565,0,0,0-10.576,2.494c-2.442,1.414-3.789,3.175-3.789,4.955s1.41,3.617,3.86,5.035c5.645,3.25,15.679,3.274,21.28.04,2.442-1.41,3.788-3.167,3.788-4.959,0-1.773-1.406-3.613-3.856-5.027A21.791,21.791,0,0,0-508.573-142.855Z" transform="translate(2570.13 5838.843)"/><path class="bc" d="M-577.149-140.872a25.76,25.76,0,0,1-12.7-3.071c-3.777-2.179-5.86-5.19-5.86-8.481,0-3.274,2.055-6.258,5.78-8.409,6.8-3.92,18.443-3.9,25.267.048,3.776,2.175,5.856,5.19,5.856,8.477s-2.055,6.254-5.78,8.4A25.412,25.412,0,0,1-577.149-140.872Zm-.2-19a21.514,21.514,0,0,0-10.576,2.494c-2.442,1.41-3.784,3.171-3.784,4.955s1.4,3.613,3.86,5.027c5.636,3.254,15.675,3.274,21.28.044,2.442-1.41,3.788-3.167,3.788-4.955s-1.414-3.613-3.86-5.031A21.791,21.791,0,0,0-577.352-159.873Z" transform="translate(2364.92 5788.067)"/><path class="bd" d="M-596.659-174.129a25.768,25.768,0,0,1-12.7-3.067c-3.772-2.175-5.852-5.186-5.852-8.477,0-3.27,2.056-6.258,5.78-8.413,6.792-3.924,18.431-3.9,25.263.044,3.772,2.183,5.852,5.194,5.852,8.485,0,3.266-2.048,6.254-5.78,8.4A25.533,25.533,0,0,1-596.659-174.129Zm-.207-19a21.55,21.55,0,0,0-10.572,2.494c-2.442,1.414-3.788,3.179-3.788,4.963s1.41,3.613,3.86,5.027c5.641,3.255,15.679,3.278,21.28.044,2.442-1.41,3.788-3.175,3.788-4.955s-1.406-3.617-3.86-5.035A21.814,21.814,0,0,0-596.866-193.13Z" transform="translate(2306.725 5688.858)"/><path class="be" d="M-601.712-113.064a25.853,25.853,0,0,1-12.707-3.071c-3.764-2.175-5.844-5.19-5.844-8.477,0-3.266,2.048-6.258,5.78-8.409,6.8-3.924,18.431-3.9,25.263.044,3.772,2.175,5.847,5.19,5.847,8.477,0,3.27-2.047,6.258-5.776,8.409A25.557,25.557,0,0,1-601.712-113.064Zm-.211-19a21.546,21.546,0,0,0-10.568,2.49c-2.446,1.414-3.788,3.179-3.788,4.959s1.4,3.613,3.86,5.031c5.633,3.255,15.679,3.274,21.28.044,2.442-1.414,3.784-3.171,3.784-4.959s-1.4-3.617-3.856-5.027A21.8,21.8,0,0,0-601.923-132.065Z" transform="translate(2291.65 5871.034)"/><path class="bf" d="M-669.489-123.066a25.773,25.773,0,0,1-12.7-3.075c-3.772-2.175-5.852-5.186-5.852-8.473,0-3.27,2.055-6.258,5.78-8.413,6.8-3.924,18.431-3.9,25.267.048,3.768,2.171,5.848,5.182,5.848,8.477,0,3.266-2.052,6.254-5.776,8.405A25.5,25.5,0,0,1-669.489-123.066Zm-.207-19a21.524,21.524,0,0,0-10.576,2.49c-2.442,1.41-3.788,3.175-3.788,4.955s1.41,3.621,3.86,5.035c5.641,3.25,15.679,3.274,21.28.048,2.45-1.418,3.788-3.175,3.788-4.963s-1.406-3.613-3.856-5.035A21.878,21.878,0,0,0-669.7-142.067Z" transform="translate(2089.429 5841.187)"/><path class="bg" d="M-687.37-158.619a25.722,25.722,0,0,1-12.7-3.075c-3.772-2.171-5.852-5.186-5.852-8.469s2.052-6.262,5.776-8.413c6.8-3.928,18.435-3.9,25.267.044,3.772,2.179,5.852,5.194,5.852,8.485,0,3.262-2.055,6.246-5.776,8.4A25.525,25.525,0,0,1-687.37-158.619Zm-.207-19a21.5,21.5,0,0,0-10.568,2.49c-2.446,1.418-3.788,3.171-3.788,4.963s1.41,3.613,3.86,5.027c5.641,3.259,15.683,3.274,21.284.04,2.438-1.41,3.784-3.167,3.784-4.947s-1.41-3.621-3.86-5.043A21.861,21.861,0,0,0-687.577-177.62Z" transform="translate(2036.106 5735.124)"/><path class="bh" d="M-751.858-135.651a25.742,25.742,0,0,1-12.7-3.075c-3.776-2.175-5.852-5.19-5.852-8.481,0-3.266,2.048-6.254,5.776-8.4,6.8-3.92,18.439-3.9,25.267.044,3.772,2.171,5.852,5.19,5.852,8.477,0,3.27-2.055,6.258-5.784,8.405A25.5,25.5,0,0,1-751.858-135.651Zm-.2-19a21.621,21.621,0,0,0-10.576,2.494c-2.442,1.418-3.784,3.175-3.784,4.955s1.4,3.621,3.86,5.035c5.644,3.25,15.675,3.274,21.275.04,2.446-1.41,3.792-3.167,3.792-4.955s-1.41-3.613-3.864-5.027A21.744,21.744,0,0,0-752.061-154.656Z" transform="translate(1843.71 5803.651)"/><path class="bi" d="M-670.247-188.047a25.782,25.782,0,0,1-12.7-3.067c-3.772-2.179-5.852-5.194-5.852-8.485,0-3.27,2.052-6.258,5.776-8.405,6.8-3.92,18.431-3.9,25.267.044,3.776,2.175,5.855,5.194,5.855,8.481,0,3.266-2.059,6.254-5.784,8.405A25.507,25.507,0,0,1-670.247-188.047Zm-.2-18.993a21.577,21.577,0,0,0-10.576,2.486c-2.438,1.414-3.784,3.175-3.784,4.955s1.41,3.617,3.86,5.031c5.641,3.258,15.679,3.278,21.28.04,2.442-1.406,3.788-3.167,3.788-4.951s-1.41-3.613-3.86-5.031A21.77,21.77,0,0,0-670.45-207.04Z" transform="translate(2087.192 5647.335)"/><path class="bj" d="M-782.131-192.827a25.784,25.784,0,0,1-12.7-3.075c-3.772-2.171-5.848-5.182-5.848-8.477,0-3.274,2.047-6.258,5.78-8.405,6.8-3.924,18.431-3.9,25.263.044,3.772,2.175,5.852,5.19,5.852,8.481,0,3.266-2.052,6.25-5.776,8.4A25.531,25.531,0,0,1-782.131-192.827Zm-.207-19a21.508,21.508,0,0,0-10.572,2.5c-2.446,1.41-3.788,3.171-3.788,4.955s1.406,3.613,3.86,5.027c5.637,3.258,15.683,3.278,21.28.048,2.438-1.41,3.784-3.171,3.784-4.955s-1.406-3.617-3.856-5.035A21.826,21.826,0,0,0-782.338-211.832Z" transform="translate(1753.38 5633.066)"/><path class="bk" d="M-793.1-255.447a25.826,25.826,0,0,1-12.7-3.067c-3.78-2.183-5.856-5.2-5.856-8.489,0-3.27,2.055-6.254,5.776-8.4,6.792-3.92,18.439-3.9,25.271.044,3.772,2.175,5.852,5.19,5.852,8.485,0,3.266-2.052,6.246-5.784,8.393A25.429,25.429,0,0,1-793.1-255.447Zm-.207-19a21.59,21.59,0,0,0-10.576,2.494c-2.434,1.41-3.784,3.163-3.784,4.951s1.41,3.617,3.864,5.035c5.641,3.254,15.675,3.27,21.276.044,2.446-1.414,3.792-3.175,3.792-4.951,0-1.793-1.41-3.621-3.86-5.035A21.8,21.8,0,0,0-793.308-274.448Z" transform="translate(1720.652 5446.247)"/></g></g></svg>